<?xml version="1.0" encoding="UTF-8" standalone="no"?>
<svg
   version="1.1"
   viewBox="0 0 1280.3528 375.64347"
   id="svg6"
   sodipodi:docname="logo_wordmark.svg"
   width="338.76001mm"
   height="99.389mm"
   inkscape:version="1.3.2 (091e20e, 2023-11-25)"
   inkscape:export-filename="logo_wordmark_128.png"
   inkscape:export-xdpi="32.711868"
   inkscape:export-ydpi="32.711868"
   xmlns:inkscape="http://www.inkscape.org/namespaces/inkscape"
   xmlns:sodipodi="http://sodipodi.sourceforge.net/DTD/sodipodi-0.dtd"
   xmlns="http://www.w3.org/2000/svg"
   xmlns:svg="http://www.w3.org/2000/svg">
  <defs
     id="defs6" />
  <sodipodi:namedview
     id="namedview6"
     pagecolor="#ffffff"
     bordercolor="#000000"
     borderopacity="0.25"
     inkscape:showpageshadow="2"
     inkscape:pageopacity="0.0"
     inkscape:pagecheckerboard="0"
     inkscape:deskcolor="#d1d1d1"
     inkscape:zoom="0.88237615"
     inkscape:cx="449.35485"
     inkscape:cy="104.83058"
     inkscape:window-width="2112"
     inkscape:window-height="1184"
     inkscape:window-x="207"
     inkscape:window-y="89"
     inkscape:window-maximized="0"
     inkscape:current-layer="svg6"
     inkscape:document-units="mm" />
  <g
     id="g3"
     transform="matrix(0.66109085,0,0,0.66109085,-30.311171,-16.413824)">
    <path
       fill="#000000"
       d="m 186.38,203.24 c -15.68,-6.71 -30.26,-16.09 -40.02,-29.43 q -6.37,-8.7 -8.82,-16.85 -1.36,-4.5 -2.7,-9.45 -0.89,-3.3 -0.74,-6.27 0.58,-11.21 1.08,-22.19 c 0.26,-5.57 2.71,-11.39 5.78,-16.36 5.11,-8.26 9.55,-15.45 16.52,-21.47 6.24,-5.38 12.54,-10.82 18.85,-15.88 5.27,-4.23 12.3,-7.83 18.89,-10.5 6.95,-2.82 13.25,-6.39 20.2,-8.92 q 16.97,-6.17 35.36,-11.02 21.4,-5.64 43.48,-7.26 15.88,-1.17 32.25,-2.54 7.35,-0.61 17.49,0.15 26.3,1.99 38.6,4.06 13.54,2.28 29.81,5.78 14.13,3.04 28.45,8.63 7.43,2.9 14.23,5.18 c 2.97,1 5.66,2.47 8.66,3.5 q 5.33,1.83 10.37,4.77 8.94,5.21 16.97,10.48 c 4.98,3.27 8.46,7.88 13.11,11.48 q 4.77,3.7 7.52,7.39 c 6.45,8.67 12,16.86 14.54,27.52 q 4.01,16.88 0.93,33.99 c -3.99,22.2 -20.84,40.59 -41.04,50.48 q -4.23,2.08 -9,3.93 a 1.69,1.69 0 0 0 -1.06,1.55 q -0.49,101.04 -1.14,198.61 c -0.04,5.3 -0.38,10.72 -1.14,15.93 -0.95,6.56 -10.62,13.45 -15.75,16.38 q -17.08,9.77 -37.37,15.66 -21.45,6.23 -42.68,9.14 -2.03,0.28 -4.07,0.41 c -2.16,0.14 -4.16,0.9 -6.3,0.88 -4.48,-0.03 -8.62,0.94 -13.08,1.01 -10.05,0.15 -19.72,1.06 -29.42,0.55 q -8.7,-0.46 -18.31,-0.59 -2.77,-0.04 -5.33,-0.51 c -3.41,-0.62 -6.89,-0.1 -10.27,-0.94 -2.2,-0.55 -4.35,-0.41 -6.58,-0.73 q -23.45,-3.43 -45.92,-10.36 c -17.07,-5.27 -44.5,-15.32 -51.15,-33.55 q -0.59,-1.63 -0.59,-3.38 -0.02,-91.66 0,-208.34 0,-0.66 -0.61,-0.92 z m 111.66,-36.43 c 2.23,0.22 4.37,0.15 6.6,0.38 q 7.77,0.8 17.98,0.84 15.42,0.06 30,-0.22 c 3.16,-0.06 6.34,-0.57 9.57,-0.74 q 5.37,-0.28 11.28,-0.9 21.7,-2.29 42.16,-7.08 18.34,-4.31 35.61,-11.77 C 465.69,141.08 490.17,127.16 490.08,109 490.02,95.3 474.69,84.15 463.9,77.89 q -14.94,-8.68 -31.81,-14.67 -31.92,-11.35 -66.18,-14.1 -2.77,-0.23 -5.37,-0.59 c -4.53,-0.64 -9.06,-0.48 -13.64,-0.86 Q 335.95,46.77 326.09,47 277.97,48.13 235.2,61.79 215.6,68.05 199.6,77.27 c -9.15,5.27 -18.07,12.13 -23.89,21.08 q -4.1,6.31 -2.68,13.9 c 2.22,11.92 11.8,20.26 22.09,26.38 15.49,9.23 33.66,15.87 51.33,20.02 q 12.6,2.96 23.22,4.67 11.55,1.86 28.37,3.49 z m -100.51,13.55 q 14.73,6.27 28.75,9.86 23.33,5.97 49.71,8.92 10.79,1.21 17.77,1.65 4.13,0.27 7.82,0.6 3.76,0.34 7.83,0.42 40.62,0.78 66.45,-1.16 31.42,-2.36 62.67,-10.88 16.09,-4.38 30.96,-11.3 c 17.94,-8.36 33.57,-20.09 40.2,-38.72 0.28,-0.76 0.41,-1.69 0.35,-2.48 q -0.16,-2.55 -1.73,-0.53 c -9.68,12.47 -22.97,21.41 -37.13,28.01 -27.4,12.77 -57.47,19.41 -87.52,23.5 q -4.5,0.61 -9.09,0.86 c -5.19,0.29 -10.29,0.82 -15.49,0.96 -19.26,0.52 -37.42,0.78 -57.66,-0.06 q -2.85,-0.12 -7.83,-0.59 -4,-0.38 -7.83,-0.7 -15.68,-1.31 -37.74,-5.74 -24.58,-4.94 -46.95,-13.97 -18.28,-7.39 -32.26,-17.93 -8.71,-6.58 -15.41,-16.51 -0.94,-1.39 -1.43,0.22 -0.16,0.53 0,1.11 c 2.3,8.1 5.49,14.97 11.64,21.36 q 14.16,14.69 33.92,23.1 z m 73.08,61.54 a 0.22,0.23 54.2 0 0 0.07,-0.41 q -0.27,-0.17 -0.6,-0.2 -10.39,-0.94 -21.64,-1.84 c -3.68,-0.3 -8.13,0.1 -11.78,0.73 q -15.74,2.7 -30.8,4.88 -0.66,0.1 -0.83,0.75 -0.82,3.24 -0.98,6.38 -0.04,0.75 0.71,0.77 5.15,0.09 13.19,-1.05 28.88,-4.13 52.66,-10.01 z m 10.61,31.49 q 26.48,-7.36 48.31,-16.56 4.1,-1.72 7.79,-3.98 1.22,-0.75 -0.21,-0.85 -2.46,-0.17 -4.8,0.35 c -5.25,1.16 -11.08,1.46 -16.38,1.63 -3.62,0.13 -7.45,1.13 -10.91,2.25 q -9.66,3.11 -18.55,5.69 -36.79,10.69 -75.99,17.8 a 1.81,1.82 84.5 0 0 -1.48,1.79 v 5.26 q 0,1.48 1.47,1.28 c 1.79,-0.25 3.59,-0.25 5.38,-0.56 q 25.04,-4.36 49.36,-10 7.39,-1.71 16.01,-4.1 z m 53.08,43.38 q -36.45,13.69 -75.98,22.64 -23.66,5.35 -48.48,9.66 a 1,1 0 0 0 -0.84,1 l 0.01,5.91 a 0.96,0.97 0.6 0 0 0.93,0.96 c 2.7,0.11 5.54,0.18 8.25,-0.23 q 10.74,-1.62 21.82,-3.82 34.55,-6.9 62.5,-15.23 c 32.24,-9.61 63.35,-22 93.27,-38.22 q 23.38,-12.67 53.5,-33.38 2.74,-1.88 4.45,-4.2 0.3,-0.41 0.3,-0.93 l -0.07,-6.76 a 1.16,1.17 70.9 0 0 -1.88,-0.91 q -4.32,3.35 -8.83,6.47 -50.66,35.14 -108.95,57.04 z m 22.96,-45.68 c -28.5,13.65 -59.32,24.02 -91.36,31.95 q -20.5,5.08 -46.18,10.35 -6.56,1.35 -12.73,3.18 -1.83,0.54 -1.94,2.18 -0.12,2 -0.01,4.14 0.05,0.92 0.96,1.03 1.83,0.23 3.55,-0.02 63.52,-9.21 125.23,-32.52 c 18.16,-6.86 35.97,-15.07 52.23,-25.6 q 2.19,-1.43 -0.41,-1.65 c -3.09,-0.27 -5.73,0.7 -8.71,0.87 q -2.18,0.12 -4.22,0.55 -8.55,1.78 -16.41,5.54 z m 47.49,49.79 q -26.64,14.1 -49.77,23.59 -29.15,11.97 -68.91,22.89 -34.57,9.49 -69.11,15.31 -1.73,0.29 -3.43,0.52 -2.02,0.28 -3.86,0.85 a 0.98,0.96 81.5 0 0 -0.68,0.93 l 0.02,6.01 a 0.98,0.98 0 0 0 0.95,0.98 c 3.18,0.11 6.35,0.12 9.49,-0.36 q 41.24,-6.33 74.51,-15.05 72.54,-19.02 137.28,-61.49 9.78,-6.41 20.74,-14.89 a 5.14,5.13 70.7 0 0 1.99,-4.14 q -0.03,-1.71 0.15,-3.55 0.2,-2.11 -1.51,-0.86 -20.06,14.56 -47.86,29.26 z m -17.7,55.56 q 20.07,-9.56 36.69,-20.97 4.81,-3.3 9.92,-8.64 0.45,-0.47 0.76,-1.03 0.66,-1.18 -0.61,-0.71 -13.86,5.25 -24.67,10.3 c -11.41,5.33 -22.5,11.06 -34.08,16.17 q -46.77,20.6 -97.32,34.11 -18.3,4.88 -36.19,9.34 -0.86,0.21 -1.51,0.94 -0.87,0.96 0.38,1.3 4.72,1.31 10,2.22 3.96,0.68 9.29,-0.19 7.3,-1.19 14.78,-2.85 18.79,-4.16 39.01,-10.72 37.95,-12.32 73.55,-29.27 z m 45.06,4.68 20.36,9.19 a 0.14,0.14 0 0 0 0.19,-0.07 l 0.02,-0.04 a 6.81,6.65 24.3 0 0 -3.47,-8.87 l -8.2,-3.7 a 6.81,6.65 24.3 0 0 -8.95,3.26 l -0.02,0.05 a 0.14,0.14 0 0 0 0.07,0.18 z m 0.47,41.88 a 0.76,0.76 0 0 0 0.56,0.03 l 11.24,-3.76 a 0.76,0.76 0 0 0 0.08,-1.41 l -44.39,-21.17 a 0.76,0.76 0 0 0 -0.64,0 l -10.42,4.74 a 0.76,0.76 0 0 0 -0.01,1.39 z m -57.98,8.79 a 0.61,0.61 0 0 0 0.22,0.04 l 9.65,0.12 a 0.61,0.61 0 0 0 0.28,-1.15 l -29.18,-14.92 a 0.61,0.61 0 0 0 -0.47,-0.04 l -9.41,3.09 a 0.61,0.61 0 0 0 -0.04,1.14 z m -62.69,0.17 6.1,0.02 a 0.11,0.11 0 0 0 0.11,-0.11 v -0.03 a 3.02,1.72 0.1 0 0 -3.02,-1.73 h -0.28 a 3.02,1.72 0.1 0 0 -3.02,1.71 v 0.03 a 0.11,0.11 0 0 0 0.11,0.11 z"
       id="path1" />
    <path
       fill="#000000"
       d="m 373.98,73.5 c 5.78055,2.435021 12.35283,6.445728 13.25842,13.22609 0.25258,5.489584 -4.88069,10.777835 -10.50337,9.791569 -7.98505,-0.582044 -15.10379,-4.881173 -23.04401,-5.788019 -21.87453,-3.969358 -44.66947,-1.140061 -65.515,6.213745 -6.30129,1.641843 -12.69624,-4.253331 -11.97468,-10.594892 0.38978,-6.181763 6.40461,-9.650934 11.40874,-11.988398 11.32633,-4.642577 23.61104,-6.267346 35.71197,-7.486306 11.06302,-1.053718 22.15812,0.39293 33.10095,1.949189 5.98306,0.988545 11.91477,2.42856 17.55698,4.677022 z"
       id="path2" />
    <ellipse
       fill="#000000"
       cx="331.04358"
       cy="122.41502"
       transform="rotate(-0.3)"
       rx="48.360001"
       ry="20.610001"
       id="ellipse2" />
    <path
       fill="#000000"
       d="m 135.92,514.47 q -3.12,-3.35 -5.77,-5.44 -4.04,-3.17 -7.38,-7.14 C 115.52,493.25 108.64,485.57 103.74,479 Q 88.62,458.73 74.2,431.56 q -0.11,-0.23 -0.16,-0.88 -0.02,-0.37 -0.16,-0.7 -2.66,-6.5 -5.65,-12.42 C 63.91,409 61.03,399.44 58.37,390.09 q -5.26,-18.4 -8.77,-36.84 -0.84,-4.42 -1.4,-8.86 -1.06,-8.31 -1.56,-16.76 -0.03,-0.42 -0.25,-0.78 -0.44,-0.72 -0.46,-1.6 -0.52,-21.53 2.35,-44.36 2.09,-16.68 2.57,-19.85 2.35,-15.64 7.96,-30.54 1.07,-2.85 4.26,-14.43 1.31,-4.76 5.3,-11.71 2.83,-4.92 5.21,-10.2 7.32,-16.23 17.9,-32.11 5.76,-8.63 13.73,-12.44 c 5.88,-2.8 12.95,4.29 16.36,8.66 q 2.34,3 0.67,7.13 c -3.38,8.38 -8.69,15.65 -13.25,23.39 q -15.04,25.58 -22.98,52.71 -1.02,3.49 -1.99,7.05 -0.34,1.23 -0.72,2.39 -0.35,1.05 -0.31,2.09 a 1.75,1.81 58.1 0 1 -0.24,0.96 q -0.87,1.52 -0.76,3.22 0.03,0.56 -0.23,1.05 -0.9,1.69 -0.77,3.63 0.04,0.6 -0.23,1.14 -0.93,1.88 -0.77,4.09 0.04,0.6 -0.22,1.14 c -1.1,2.33 -0.42,4.46 -1.22,6.79 -0.85,2.45 -0.27,4.83 -0.96,7.37 -0.94,3.45 -0.36,6.99 -1,10.6 q -0.62,3.43 -0.61,7.32 0.01,9.55 0.07,19.22 c 0.03,3.76 0.83,7.45 0.93,11.23 q 0.06,2.18 0.34,4.4 0.81,6.5 1.83,12.27 4.39,25.02 12.3,44.88 1.16,2.93 2.7,5.78 a 1.64,1.65 61.3 0 0 2.25,0.65 q 28.48,-15.74 59.83,-26.93 7.38,-2.63 14.29,-3.63 1.91,-0.27 3.7,0.96 0.39,0.27 0.58,0.71 0.96,2.31 1.02,3.23 1.52,20.88 1.16,40.85 -0.04,1.9 0.47,3.63 c 0.45,1.52 0.57,3.05 1.2,4.53 q 3.56,8.31 10.76,14.59 10.9,9.5 26.43,16.27 25,10.91 56.39,16.44 10.1,1.77 16.75,2.51 2.34,0.25 4.5,0.66 c 3.18,0.61 6.25,0.12 9.43,0.91 3.86,0.96 8.08,0.24 11.95,0.73 q 3.57,0.45 6.96,0.58 13.9,0.52 23.04,-0.2 6.72,-0.53 12.33,-0.63 2.93,-0.04 5.5,-0.56 c 3.19,-0.65 6.22,-0.27 9.52,-0.89 q 1.74,-0.33 4.25,-0.62 13.71,-1.6 28.7,-4.97 21.94,-4.93 39.57,-12.61 c 11.27,-4.91 21.92,-10.93 30.62,-19.3 4.39,-4.23 8.84,-10.21 9.87,-16.13 0.25,-1.39 0.69,-2.55 0.69,-4.01 q -0.02,-19 1.41,-41.63 0.31,-4.82 5.42,-4.63 5.58,0.2 11.03,2.01 27.01,8.98 57.84,25.17 c 2.74,1.44 6.47,4.09 8.68,-0.08 q 1.25,-2.34 2.11,-4.84 7.39,-21.3 11.27,-41.67 c 1.15,-6.02 2.05,-12.66 2.42,-18.78 q 1.23,-20.74 0.25,-41.55 -0.57,-12.13 -3.32,-24.85 -7.25,-33.51 -22.3,-62.44 -7.18,-13.81 -16.41,-27.86 -4.33,-6.59 -3.95,-14.86 0.02,-0.55 0.51,-0.79 c 0.33,-0.15 0.67,-0.52 0.81,-0.85 2.51,-6.29 10.85,-8.7 16.8,-6.52 q 6.95,2.54 10.37,6.73 c 4.72,5.8 8.21,12.13 11.92,18.54 q 4.97,8.58 8.38,17.4 1.91,4.95 4.11,8.77 c 2.33,4.05 4.81,8.34 6.29,12.84 q 5.1,15.51 9.99,34.05 3.8,14.41 6.03,33 1.14,9.55 0.93,19.97 -0.34,17.4 -0.86,34.09 -0.08,2.51 -0.65,5.28 c -0.51,2.47 -0.42,4.91 -0.82,7.39 q -3.37,21.19 -10.03,43.56 -3.44,11.52 -8.64,23.45 -2.57,5.88 -4.99,12.32 -2.81,7.43 -5.42,12.31 -4.56,8.5 -10.99,18.92 c -3.71,5.99 -7.95,11.57 -11.74,17.51 -2.46,3.86 -5.87,6.96 -8.76,10.5 q -4.31,5.25 -8.75,10.09 -3.3,3.6 -6.62,7.56 -3.22,3.85 -6.32,6.46 -8.78,7.43 -16.47,14.41 -11.41,10.37 -32.15,23.56 -5.29,3.37 -10.57,5.75 -3.47,1.58 -7.21,3.67 -3.45,1.92 -7.17,3.58 -20.9,9.3 -34.18,14.93 -8.32,3.53 -17,5.19 c -13.85,2.64 -27.41,5.7 -41.57,7.55 -14.37,1.88 -24.6,3.24 -36.79,2.89 q -5.54,-0.15 -12.08,-0.75 -12.9,-1.19 -22.96,-2.48 -6.31,-0.81 -13.95,-2.71 c -12.6,-3.14 -27.2,-4.59 -38.08,-9.08 q -9.6,-3.96 -19.79,-8.13 c -4.23,-1.72 -8.25,-4.15 -12.72,-5.9 q -13.76,-5.41 -16.74,-7.24 -9.08,-5.58 -17.84,-10.55 -8.55,-4.86 -20.45,-14.18 c -4.48,-3.51 -8.59,-7.83 -12.73,-11.85 q -2.82,-2.74 -5.54,-5.65 z m 62.84,-23.08 q 24.7,10.62 48.71,16.17 24.3,5.62 46.9,8.22 1.64,0.19 3.3,0.25 c 2.79,0.1 5.46,0.69 8.35,0.79 16.21,0.58 32.22,1.02 48.92,0.32 q 10.1,-0.43 19.77,-1.68 18.55,-2.41 37.96,-6.73 22.12,-4.93 42.12,-12.58 c 19.45,-7.45 37.33,-17.36 51.57,-31.94 7.7,-7.88 13.02,-17.81 11.02,-28.76 q -1.16,-6.29 -3.35,-10.92 -0.54,-1.15 -1.74,-1.43 a 0.98,0.98 0 0 0 -1.21,0.97 q 0.11,9.13 -5.72,17.32 -10.08,14.16 -27.19,23.51 c -30.22,16.53 -63.93,25.99 -98.07,30.19 q -6.48,0.8 -13.72,1.5 -4.04,0.4 -7.77,0.55 c -6.46,0.27 -12.92,0.92 -19.34,0.89 -7.88,-0.04 -15.39,0.21 -23.05,-0.37 -5.72,-0.43 -11.54,-0.53 -17.32,-1.15 q -3.9,-0.41 -7.64,-0.79 -34.79,-3.51 -68.25,-14.32 -22.7,-7.34 -41.96,-18.7 c -10.14,-5.98 -21.67,-15.52 -26.47,-26.44 q -2.09,-4.75 -2.54,-10.49 -0.14,-1.79 -0.27,-3.62 -0.18,-2.3 -1.26,-0.26 -1.9,3.6 -3.1,6.85 c -5.88,15.87 1.98,29.71 14.01,39.9 q 16.04,13.59 37.34,22.75 z m -6.17,34.74 q 33.8,14.73 70.47,20.95 47.31,8.04 92.74,5.35 c 1.36,-0.09 2.71,-0.46 4.03,-0.43 q 5.3,0.09 10.11,-0.75 c 1.8,-0.32 3.53,-0.21 5.31,-0.42 q 34.22,-4 65.41,-13.32 23.65,-7.06 44.13,-17.59 7.28,-3.74 14.62,-9.02 c 8.39,-6.03 14.15,-12.26 16.58,-21.96 q 0.31,-1.2 -0.69,-0.46 c -3.79,2.81 -7.33,6.1 -11.17,8.9 -17.8,12.94 -39.1,21.82 -60.67,28.48 q -24.65,7.61 -53.45,12.19 -15.9,2.54 -28.51,2.82 -27.06,0.62 -54.93,0.14 -8.6,-0.15 -14.65,-0.66 -6.92,-0.58 -14.58,-1.67 -30.17,-4.27 -59.44,-13.56 c -25.32,-8.03 -48.38,-18.78 -68.52,-35.36 q -2.89,-2.39 -1.81,1.2 c 2.76,9.2 9.29,15.13 17.14,20.32 q 12.03,7.95 27.88,14.85 z"
       id="path3" />
    <path
       fill="#000000"
       d="m 545.66,294.39 c -5.63047,2.95163 -7.29662,9.49308 -9.11371,15.06511 -0.79558,2.84074 -2.93558,6.17614 -6.18629,6.16489 -3.78628,-1.66374 -4.99126,-5.89634 -5.98809,-9.53309 -1.61723,-5.5169 -4.92146,-11.20055 -10.71191,-13.04691 -3.96218,-1.6867 -8.71574,-2.1449 -11.8216,-5.38385 -2.57249,-2.77424 0.15413,-6.74905 3.2416,-7.54615 4.19793,-1.82279 8.86316,-2.59169 12.77641,-5.02203 4.61665,-3.01805 5.84277,-8.70166 7.20796,-13.65797 0.99263,-3.27892 1.97581,-8.0973 6.54204,-7.01406 3.74391,0.47012 4.80526,4.66746 5.88484,7.66547 1.05824,4.77605 2.93601,9.7137 7.0943,12.64129 4.70599,3.75743 11.61667,3.39038 15.87041,7.83095 2.15016,3.18905 -0.9892,6.81107 -4.0869,7.73276 -3.62081,1.22658 -7.38045,2.13605 -10.70906,4.10359 z"
       id="path5" />
    <path
       fill="#000000"
       d="m 134.23,311.57 c 1.02607,4.48388 4.29619,8.30713 8.64216,9.88643 3.55918,1.72778 7.92467,1.99991 10.82741,4.90102 2.932,2.78938 -0.59633,6.23041 -3.36795,7.1755 -3.71411,1.68596 -8.20672,1.75835 -11.25662,4.77955 -3.83813,3.31554 -4.69365,8.53526 -6.85156,12.88891 -1.16234,2.39478 -2.76635,7.30389 -6.14047,6.16406 -3.33827,-1.67408 -3.58301,-5.76442 -4.89997,-8.83227 -1.84342,-5.28107 -4.95086,-10.82764 -10.53714,-12.78586 -3.63242,-1.21932 -8.25173,-1.73325 -10.20519,-5.52916 -1.407815,-3.11019 2.19128,-5.9862 4.94497,-6.70329 3.88702,-1.10706 8.2975,-1.57853 11.12748,-4.82489 3.4822,-3.60335 4.29551,-8.75459 6.31602,-13.17168 0.77566,-2.34722 3.61187,-5.71428 6.23248,-3.63936 3.37313,2.01998 4.19523,6.1992 5.16838,9.69104 z"
       id="path6" />
    <path
       fill="#000000"
       d="m 148.11956,237.21242 c 0.54368,2.19585 2.2764,4.06817 4.57918,4.84158 1.88589,0.84613 4.19901,0.9794 5.73707,2.40013 1.55356,1.36602 -0.31598,3.05116 -1.78456,3.51399 -1.96798,0.82565 -4.34846,0.8611 -5.96449,2.34064 -2.0337,1.62368 -2.48701,4.17989 -3.63041,6.31196 -0.61588,1.17277 -1.46579,3.57686 -3.25362,3.01866 -1.76883,-0.81983 -1.89851,-2.82295 -2.59632,-4.32534 -0.97677,-2.58625 -2.62329,-5.30251 -5.58327,-6.26149 -1.92469,-0.59713 -4.3723,-0.84881 -5.40737,-2.70774 -0.74595,-1.52313 1.16108,-2.93156 2.62016,-3.28274 2.0596,-0.54215 4.39656,-0.77304 5.89607,-2.36284 1.8451,-1.76464 2.27604,-4.2873 3.34664,-6.45044 0.41099,-1.14948 1.9138,-2.7984 3.30237,-1.78227 1.78731,0.98923 2.22291,3.03588 2.73855,4.7459 z"
       id="path6-7"
       style="stroke-width:0.509397" />
  </g>
  <path
     d="m 1064.8562,249.3443 h 10.752 v 74.88 h -10.752 z m 42.6241,75.936 q -5.76,0 -10.368,-2.4 -4.608,-2.4 -7.392,-7.104 -2.688,-4.704 -2.688,-11.808 0,-6.912 2.784,-11.808 2.88,-4.992 7.488,-7.68 4.704,-2.688 10.176,-2.688 5.664,0 9.12,2.208 3.552,2.112 5.664,5.088 l 0.768,-5.472 h 9.888 v 40.608 h -10.752 v -5.952 q -1.056,1.248 -3.072,2.88 -2.016,1.632 -4.992,2.88 -2.88,1.248 -6.624,1.248 z m 2.976,-8.832 q 4.32,0 7.392,-2.304 3.072,-2.304 4.32,-6.336 v -8.832 q -1.152,-3.744 -4.416,-6.048 -3.264,-2.304 -7.68,-2.304 -3.36,0 -6.144,1.632 -2.688,1.536 -4.416,4.512 -1.632,2.88 -1.632,6.624 0,3.648 1.728,6.624 1.728,2.976 4.512,4.704 2.88,1.728 6.336,1.728 z m 62.976,8.832 q -4.992,0 -8.736,-1.728 -3.648,-1.824 -6.144,-4.704 v 5.376 h -10.752 v -74.88 h 10.752 v 38.592 q 2.4,-2.688 6.624,-4.416 4.32,-1.728 9.696,-1.728 5.376,0 9.792,2.592 4.512,2.496 7.2,7.296 2.688,4.8 2.688,11.52 0,6.912 -2.976,11.904 -2.976,4.896 -7.776,7.584 -4.8,2.592 -10.368,2.592 z m -2.304,-9.12 q 3.456,0 6.24,-1.728 2.88,-1.728 4.512,-4.608 1.728,-2.976 1.728,-6.72 0,-3.648 -1.728,-6.528 -1.632,-2.88 -4.512,-4.608 -2.784,-1.728 -6.24,-1.728 -4.608,0 -7.968,2.4 -3.36,2.304 -4.608,6.048 v 9.024 q 1.344,3.744 4.608,6.144 3.264,2.304 7.968,2.304 z m 46.9439,8.928 q -4.608,0 -8.832,-1.632 -4.128,-1.632 -7.008,-4.8 l 4.608,-6.048 q 2.688,2.592 5.28,3.84 2.688,1.152 5.088,1.152 2.688,0 4.608,-0.96 2.016,-1.056 2.016,-3.456 0,-1.92 -1.344,-2.976 -1.344,-1.152 -3.456,-1.824 -2.112,-0.768 -4.416,-1.44 -5.28,-1.632 -7.872,-4.8 -2.592,-3.168 -2.592,-7.296 0,-3.168 1.632,-6.048 1.632,-2.976 4.896,-4.896 3.36,-1.92 8.544,-1.92 4.512,0 7.968,1.056 3.456,1.056 6.432,3.36 l -4.128,6.432 q -1.728,-1.632 -4.128,-2.496 -2.304,-0.96 -4.224,-1.056 -2.592,-0.096 -4.32,1.056 -1.728,1.152 -1.728,3.072 -0.096,1.92 1.248,3.072 1.44,1.152 3.648,1.824 2.208,0.672 4.416,1.44 4.416,1.44 7.296,4.128 2.88,2.592 2.88,7.296 0,3.744 -1.824,6.912 -1.824,3.168 -5.472,5.088 -3.648,1.92 -9.216,1.92 z"
     id="text2"
     style="font-weight:600;font-size:96px;font-family:'Josefin Sans';-inkscape-font-specification:'Josefin Sans Semi-Bold';letter-spacing:0px;word-spacing:0px"
     aria-label="labs" />
  <path
     d="m 769.95908,363.86512 q -9.216,0 -17.664,-3.264 -8.256,-3.264 -14.016,-9.6 l 9.216,-12.096 q 5.376,5.184 10.56,7.68 5.376,2.304 10.176,2.304 5.376,0 9.216,-1.92 4.032,-2.112 4.032,-6.912 0,-3.84 -2.688,-5.952 -2.688,-2.304 -6.912,-3.648 -4.224,-1.536 -8.832,-2.88 -10.56,-3.264 -15.744,-9.6 -5.184,-6.336 -5.184,-14.592 0,-6.336 3.264,-12.096 3.264,-5.952 9.792,-9.792 6.72,-3.84 17.088,-3.84 9.024,0 15.936,2.112 6.912,2.112 12.864,6.72 l -8.256,12.864 q -3.456,-3.264 -8.256,-4.992 -4.608,-1.92 -8.448,-2.112 -5.184,-0.192 -8.64,2.112 -3.456,2.304 -3.456,6.144 -0.192,3.84 2.496,6.144 2.88,2.304 7.296,3.648 4.416,1.344 8.832,2.88 8.832,2.88 14.592,8.256 5.76,5.184 5.76,14.592 0,7.488 -3.648,13.824 -3.648,6.336 -10.944,10.176 -7.296,3.84 -18.432,3.84 z m 63.55206,37.248 19.008,-42.24 -37.632,-77.952 h 24.192 l 24.192,53.76 24.192,-53.76 h 19.584 l -52.416,120.192 z m 110.59205,-120.192 1.536,14.592 q 4.224,-8.256 12.48,-13.056 8.256,-4.992 19.584,-4.992 11.328,0 18.816,6.912 7.68001,6.72 7.87201,17.472 v 60.288 h -21.50401 v -52.608 q -0.384,-6.144 -3.648,-9.792 -3.072,-3.84 -10.176,-4.032 -9.984,0 -16.512,8.64 -6.336,8.448 -6.336,21.696 v 36.096 h -21.504 v -81.216 z m 97.72801,-35.712 h 21.504 v 35.712 h 21.12 v 16.896 h -21.12 v 64.32 h -21.504 v -64.32 h -14.016 v -16.896 h 14.016 z m 63.7439,116.928 v -149.76 h 21.12 v 82.56 q 4.224,-7.68 12.288,-12.48 8.256,-4.992 19.584,-4.992 11.328,0 18.816,6.912 7.68,6.72 7.872,17.472 v 60.288 h -21.504 v -52.608 q -0.384,-6.144 -3.648,-9.792 -3.072,-3.84 -10.176,-4.032 -9.984,0 -16.512,8.64 -6.336,8.64 -6.336,21.696 v 36.096 z m 128.64,-81.216 1.536,18.816 q 3.456,-6.912 9.408,-11.904 5.952,-5.184 12.096,-7.872 6.336,-2.688 10.368,-2.688 l -0.96,21.504 q -9.216,-0.768 -16.128,3.264 -6.72,4.032 -10.56,10.944 -3.648,6.72 -3.648,14.208 v 34.944 h -21.504 v -81.216 z m 90.6241,83.328 q -14.4,0 -24.576,-5.568 -10.176,-5.568 -15.552,-15.36 -5.376,-9.984 -5.376,-22.464 0,-12.096 6.144,-21.888 6.144,-9.984 16.512,-15.744 10.368,-5.952 23.232,-5.952 16.704,0 27.456,9.792 10.944,9.6 14.592,27.264 l -62.4,21.12 q 6.912,10.368 20.352,10.368 4.992,0 9.408,-1.728 4.608,-1.728 8.832,-4.608 l 9.792,15.936 q -6.528,4.032 -14.016,6.528 -7.488,2.304 -14.4,2.304 z m -24.384,-44.544 q 0,1.536 0.192,3.264 l 42.624,-15.168 q -2.304,-5.376 -6.912,-9.408 -4.608,-4.224 -12.864,-4.224 -10.176,0 -16.704,7.104 -6.336,7.104 -6.336,18.432 z m 122.1122,44.544 q -11.52,0 -20.736,-4.8 -9.216,-4.8 -14.784,-14.208 -5.376,-9.408 -5.376,-23.616 0,-13.824 5.568,-23.616 5.76,-9.984 14.976,-15.36 9.408,-5.376 20.352,-5.376 11.328,0 18.24,4.416 7.104,4.224 11.328,10.176 l 1.536,-10.944 h 19.776 v 81.216 h -21.504 v -11.904 q -2.112,2.496 -6.144,5.76 -4.032,3.264 -9.984,5.76 -5.76,2.496 -13.248,2.496 z m 5.952,-17.664 q 8.64,0 14.784,-4.608 6.144,-4.608 8.64,-12.672 v -17.664 q -2.304,-7.488 -8.832,-12.096 -6.528,-4.608 -15.36,-4.608 -6.72,0 -12.288,3.264 -5.376,3.072 -8.832,9.024 -3.264,5.76 -3.264,13.248 0,7.296 3.456,13.248 3.456,5.952 9.024,9.408 5.76,3.456 12.672,3.456 z m 107.9039,17.664 q -11.52,0 -20.544,-5.376 -9.024,-5.376 -14.208,-15.168 -5.184,-9.984 -5.184,-23.424 0,-13.632 5.568,-23.232 5.568,-9.6 15.168,-14.592 9.6,-5.184 21.888,-5.184 8.832,0 16.704,3.456 8.064,3.264 12.672,9.024 v -77.376 h 21.312 v 149.76 h -21.504 v -10.944 q -5.952,5.76 -14.016,9.408 -7.872,3.648 -17.856,3.648 z m 6.912,-18.24 q 9.408,0 15.744,-4.608 6.528,-4.608 9.216,-12.864 v -17.28 q -2.304,-7.488 -9.216,-12.288 -6.72,-4.8 -15.744,-4.8 -6.912,0 -12.672,3.456 -5.568,3.264 -9.024,9.024 -3.456,5.76 -3.456,13.248 0,7.296 3.456,13.248 3.456,5.952 9.024,9.408 5.76,3.456 12.672,3.456 z"
     id="text1"
     style="font-weight:600;font-size:192px;font-family:'Josefin Sans';-inkscape-font-specification:'Josefin Sans Semi-Bold'"
     aria-label="synthread"
     transform="translate(-309.45533,-118.92368)" />
</svg>
